<svg width="73" height="28" viewBox="0 0 73 28" fill="none" xmlns="http://www.w3.org/2000/svg">
<path fill-rule="evenodd" clip-rule="evenodd" d="M20 14C20 11.7909 21.7909 10 24 10V10C26.2091 10 28 11.7909 28 14V14C28 16.2091 26.2091 18 24 18V18C21.7909 18 20 16.2091 20 14V14Z" fill="black"/>
<path fill-rule="evenodd" clip-rule="evenodd" d="M0 14C0 11.7909 1.79086 10 4 10V10C6.20914 10 8 11.7909 8 14V14C8 16.2091 6.20914 18 4 18V18C1.79086 18 0 16.2091 0 14V14Z" fill="black"/>
<path fill-rule="evenodd" clip-rule="evenodd" d="M10 24C10 21.7909 11.7909 20 14 20V20C16.2091 20 18 21.7909 18 24V24C18 26.2091 16.2091 28 14 28V28C11.7909 28 10 26.2091 10 24V24Z" fill="black"/>
<path fill-rule="evenodd" clip-rule="evenodd" d="M10 4C10 1.79086 11.7909 0 14 0V0C16.2091 0 18 1.79086 18 4V4C18 6.20914 16.2091 8 14 8V8C11.7909 8 10 6.20914 10 4V4Z" fill="black"/>
<path d="M43.4716 11.5625C43.4186 11.0663 43.1951 10.6799 42.8011 10.4034C42.411 10.1269 41.9034 9.98864 41.2784 9.98864C40.839 9.98864 40.4621 10.0549 40.1477 10.1875C39.8333 10.3201 39.5928 10.5 39.4261 10.7273C39.2595 10.9545 39.1742 11.214 39.1705 11.5057C39.1705 11.7481 39.2254 11.9583 39.3352 12.1364C39.4489 12.3144 39.6023 12.4659 39.7955 12.5909C39.9886 12.7121 40.2027 12.8144 40.4375 12.8977C40.6723 12.9811 40.9091 13.0511 41.1477 13.108L42.2386 13.3807C42.678 13.483 43.1004 13.6212 43.5057 13.7955C43.9148 13.9697 44.2803 14.1894 44.6023 14.4545C44.928 14.7197 45.1856 15.0398 45.375 15.4148C45.5644 15.7898 45.6591 16.2292 45.6591 16.733C45.6591 17.4148 45.4848 18.0152 45.1364 18.5341C44.7879 19.0492 44.2841 19.4527 43.625 19.7443C42.9697 20.0322 42.1761 20.1761 41.2443 20.1761C40.339 20.1761 39.553 20.036 38.8864 19.7557C38.2235 19.4754 37.7045 19.0663 37.3295 18.5284C36.9583 17.9905 36.7576 17.3352 36.7273 16.5625H38.8011C38.8314 16.9678 38.9564 17.3049 39.1761 17.5739C39.3958 17.8428 39.6818 18.0436 40.0341 18.1761C40.3902 18.3087 40.7879 18.375 41.2273 18.375C41.6856 18.375 42.0871 18.3068 42.4318 18.1705C42.7803 18.0303 43.053 17.8371 43.25 17.5909C43.447 17.3409 43.5473 17.0492 43.5511 16.7159C43.5473 16.4129 43.4583 16.1629 43.2841 15.9659C43.1098 15.7652 42.8655 15.5985 42.5511 15.4659C42.2405 15.3295 41.8769 15.2083 41.4602 15.1023L40.1364 14.7614C39.178 14.5152 38.4205 14.142 37.8636 13.642C37.3106 13.1383 37.0341 12.4697 37.0341 11.6364C37.0341 10.9508 37.2197 10.3504 37.5909 9.83523C37.9659 9.32008 38.4754 8.92045 39.1193 8.63636C39.7633 8.34848 40.4924 8.20455 41.3068 8.20455C42.1326 8.20455 42.8561 8.34848 43.4773 8.63636C44.1023 8.92045 44.5928 9.31629 44.9489 9.82386C45.3049 10.3277 45.4886 10.9072 45.5 11.5625H43.4716ZM59.5361 14.1818C59.5361 15.4356 59.3012 16.5095 58.8315 17.4034C58.3656 18.2936 57.7293 18.9754 56.9224 19.4489C56.1194 19.9223 55.2084 20.1591 54.1895 20.1591C53.1705 20.1591 52.2577 19.9223 51.4509 19.4489C50.6478 18.9716 50.0115 18.2879 49.5418 17.3977C49.0759 16.5038 48.8429 15.4318 48.8429 14.1818C48.8429 12.928 49.0759 11.8561 49.5418 10.9659C50.0115 10.072 50.6478 9.38826 51.4509 8.91477C52.2577 8.44129 53.1705 8.20455 54.1895 8.20455C55.2084 8.20455 56.1194 8.44129 56.9224 8.91477C57.7293 9.38826 58.3656 10.072 58.8315 10.9659C59.3012 11.8561 59.5361 12.928 59.5361 14.1818ZM57.4168 14.1818C57.4168 13.2992 57.2785 12.5549 57.002 11.9489C56.7293 11.339 56.3505 10.8788 55.8656 10.5682C55.3808 10.2538 54.8221 10.0966 54.1895 10.0966C53.5569 10.0966 52.9982 10.2538 52.5134 10.5682C52.0285 10.8788 51.6478 11.339 51.3713 11.9489C51.0986 12.5549 50.9622 13.2992 50.9622 14.1818C50.9622 15.0644 51.0986 15.8106 51.3713 16.4205C51.6478 17.0265 52.0285 17.4867 52.5134 17.8011C52.9982 18.1117 53.5569 18.267 54.1895 18.267C54.8221 18.267 55.3808 18.1117 55.8656 17.8011C56.3505 17.4867 56.7293 17.0265 57.002 16.4205C57.2785 15.8106 57.4168 15.0644 57.4168 14.1818ZM61.6773 8.36364H64.058L66.9045 13.5114H67.0182L69.8648 8.36364H72.2455L68.0125 15.6591V20H65.9102V15.6591L61.6773 8.36364Z" fill="black"/>
</svg>
